<?xml version="1.0" encoding="utf-8"?>
<?xml-stylesheet type="text/xsl" href="rss1.xsl"?>
<rss version="2.0" xmlns:atom="http://www.w3.org/2005/Atom" xmlns:content="http://purl.org/rss/1.0/modules/content/" xmlns:dc="http://purl.org/dc/elements/1.1/" xmlns:media="http://search.yahoo.com/mrss/">
<channel>
 <title>Getty</title>
 <link>http://www.gettyimg.com/</link>
 <atom:link href="http://www.gettyimg.com/" rel="self" type="application/rss+xml" />

 
                <item>
                <title><![CDATA[【HD Live Performances】WEB-DL - Gilberto Gil - Lollapalooza Brazil 2024 2160p WEB-DL DDP5.1 H.265]]></title>
                <link><![CDATA[https://sharemania.us/threads/gilberto-gil-lollapalooza-brazil-2024-2160p-web-dl-ddp5-1-h-265.240689/]]></link>
                <description><![CDATA[<article>
<blockquote class="messageText SelectQuoteContainer ugc baseHtml">
<div style="text-align: center"><br>
<a href="https://ibb.co/0qt9z7t" target="_blank" class="externalLink" rel="nofollow"><img src="https://i.ibb.co/zsJ2tMJ/lollapalooza-1-76411.png" class="bbCodeImage LbImage" alt="[​IMG]" data-url="https://i.ibb.co/zsJ2tMJ/lollapalooza-1-76411.png"></a><br>
<a href="https://ibb.co/Cn4tV3y" target="_blank" class="externalLink" rel="nofollow"><img src="https://i.ibb.co/Cn4tV3y/Lollapalooza-Brasil-2024-Gilberto-Gil-2160p-GLBO-WEB-DL-DDP5-1-Atmos-H-265-JL92-mkv-20240324-194312.png" class="bbCodeImage LbImage" alt="[​IMG]" data-url="https://i.ibb.co/Cn4tV3y/Lollapalooza-Brasil-2024-Gilberto-Gil-2160p-GLBO-WEB-DL-DDP5-1-Atmos-H-265-JL92-mkv-20240324-194312.png"></a> <a href="https://ibb.co/LNKT8ZK" target="_blank" class="externalLink" rel="nofollow"><img src="https://i.ibb.co/LNKT8ZK/Lollapalooza-Brasil-2024-Gilberto-Gil-2160p-GLBO-WEB-DL-DDP5-1-Atmos-H-265-JL92-mkv-20240324-194315.png" class="bbCodeImage LbImage" alt="[​IMG]" data-url="https://i.ibb.co/LNKT8ZK/Lollapalooza-Brasil-2024-Gilberto-Gil-2160p-GLBO-WEB-DL-DDP5-1-Atmos-H-265-JL92-mkv-20240324-194315.png"></a> <a href="https://ibb.co/hRS9dd3" target="_blank" class="externalLink" rel="nofollow"><img src="https://i.ibb.co/hRS9dd3/Lollapalooza-Brasil-2024-Gilberto-Gil-2160p-GLBO-WEB-DL-DDP5-1-Atmos-H-265-JL92-mkv-20240324-194318.png" class="bbCodeImage LbImage" alt="[​IMG]" data-url="https://i.ibb.co/hRS9dd3/Lollapalooza-Brasil-2024-Gilberto-Gil-2160p-GLBO-WEB-DL-DDP5-1-Atmos-H-265-JL92-mkv-20240324-194318.png"></a><br>
​</div>
<div class="ToggleTriggerAnchor bbCodeSpoilerContainer">
<button type="button" class="button bbCodeSpoilerButton ToggleTrigger Tooltip JsOnly" data-target="> .SpoilerTarget"><span>Spoiler: <span class="SpoilerTitle">MediaInfo</span></span></button>
<div class="SpoilerTarget bbCodeSpoilerText">
<div class="bbCodeBlock bbCodeCode">
<div class="type">Code:</div>
<pre>General
Format                                   : Matroska
Format version                           : Version 4
File size                                : 8.36 GiB
Duration                                 : 1 h 4 min
Overall bit rate                         : 18.5 Mb/s
Frame rate                               : 30.000 FPS
Writing application                      : Lavf58.76.100
Writing library                          : Lavf58.76.100
ErrorDetectionType                       : Per level 1

Video
ID                                       : 1
Format                                   : HEVC
Format/Info                              : High Efficiency Video Coding
Format profile                           : Main 10@L5.1@High
Codec ID                                 : V_MPEGH/ISO/HEVC
Duration                                 : 1 h 4 min
Bit rate                                 : 17.6 Mb/s
Width                                    : 3 840 pixels
Height                                   : 2 160 pixels
Display aspect ratio                     : 16:9
Frame rate mode                          : Constant
Frame rate                               : 30.000 FPS
Standard                                 : NTSC
Color space                              : YUV
Chroma subsampling                       : 4:2:0
Bit depth                                : 10 bits
Bits/(Pixel*Frame)                       : 0.071
Time code of first frame                 : 20:44:28:26
Stream size                              : 7.99 GiB (96%)
Default                                  : Yes
Forced                                   : No
Color range                              : Limited
Color primaries                          : BT.709
Transfer characteristics                 : BT.709
Matrix coefficients                      : BT.709

Audio
ID                                       : 2
Format                                   : E-AC-3 JOC
Format/Info                              : Enhanced AC-3 with Joint Object Coding
Commercial name                          : Dolby Digital Plus with Dolby Atmos
Codec ID                                 : A_EAC3
Duration                                 : 1 h 4 min
Bit rate mode                            : Constant
Bit rate                                 : 448 kb/s
Channel(s)                               : 6 channels
Channel layout                           : L R C LFE Ls Rs
Sampling rate                            : 48.0 kHz
Frame rate                               : 31.250 FPS (1536 SPF)
Compression mode                         : Lossy
Delay relative to video                  : 32 ms
Stream size                              : 208 MiB (2%)
Language                                 : English
Service kind                             : Complete Main
Default                                  : Yes
Forced                                   : No
Complexity index                         : 12
Number of dynamic objects                : 0
Bed channel count                        : 12 channels
Bed channel configuration                : L R C LFE Ls Rs Lb Rb Tfl Tfr Tbl Tbr
</pre>
</div></div>
</div>
<div class="bbCodeBlock bbCodeVfcHH HiddenContent">
<div class="attribution type">Hidden Content:</div>
<blockquote>You must reply before you can see the hidden data contained here.</blockquote>
</div>
<div class="messageTextEndMarker">&nbsp;</div>
</blockquote>
</article>]]></description>
                <author><![CDATA[itunesboy]]></author>
                </item>

                
                <item>
                <title><![CDATA[【Requests】[REQ AUD] - Drake Bell – A Reminder (full album) flac]]></title>
                <link><![CDATA[https://sharemania.us/threads/drake-bell-%E2%80%93-a-reminder-full-album-flac.240687/]]></link>
                <description><![CDATA[<article>
<blockquote class="messageText SelectQuoteContainer ugc baseHtml">
thanks in advance<br>
<br>
1 Tell Me 3:43<br>
2 I Need You Now 3:47<br>
3 Our Love 3:12<br>
4 Move On 3:36<br>
5 You're Not Thinking 3:12<br>
6 Let's Drive 3:50<br>
7 Terrific 3:23<br>
8 Big Shot 3:13<br>
9 Speak My Mind 4:13<br>
<br>
<br>
<a href="https://www.discogs.com/release/18786058-Drake-Bell-A-Reminder" target="_blank" class="externalLink" rel="nofollow">https://www.discogs.com/release/18786058-Drake-Bell-A-Reminder</a>
<div class="messageTextEndMarker">&nbsp;</div>
</blockquote>
</article>]]></description>
                <author><![CDATA[Black Rainbow]]></author>
                </item>

                
                <item>
                <title><![CDATA[【HD Live Performances】WEB-DL - Dayglow - Lollapalooza Brazil 2024 2160p WEB-DL DDP5.1 H.265]]></title>
                <link><![CDATA[https://sharemania.us/threads/dayglow-lollapalooza-brazil-2024-2160p-web-dl-ddp5-1-h-265.240688/]]></link>
                <description><![CDATA[<article>
<blockquote class="messageText SelectQuoteContainer ugc baseHtml">
<div style="text-align: center"><br>
<a href="https://ibb.co/0qt9z7t" target="_blank" class="externalLink" rel="nofollow"><img src="https://i.ibb.co/zsJ2tMJ/lollapalooza-1-76411.png" class="bbCodeImage LbImage" alt="[​IMG]" data-url="https://i.ibb.co/zsJ2tMJ/lollapalooza-1-76411.png"></a><br>
<a href="https://ibb.co/fvmrDBX" target="_blank" class="externalLink" rel="nofollow"><img src="https://i.ibb.co/fvmrDBX/Lollapalooza-Brasil-2024-Dayglow-2160p-GLBO-WEB-DL-DDP5-1-Atmos-H-265-JL92-mkv-20240324-192330-315.png" class="bbCodeImage LbImage" alt="[​IMG]" data-url="https://i.ibb.co/fvmrDBX/Lollapalooza-Brasil-2024-Dayglow-2160p-GLBO-WEB-DL-DDP5-1-Atmos-H-265-JL92-mkv-20240324-192330-315.png"></a> <a href="https://ibb.co/QDjv61f" target="_blank" class="externalLink" rel="nofollow"><img src="https://i.ibb.co/QDjv61f/Lollapalooza-Brasil-2024-Dayglow-2160p-GLBO-WEB-DL-DDP5-1-Atmos-H-265-JL92-mkv-20240324-192333-071.png" class="bbCodeImage LbImage" alt="[​IMG]" data-url="https://i.ibb.co/QDjv61f/Lollapalooza-Brasil-2024-Dayglow-2160p-GLBO-WEB-DL-DDP5-1-Atmos-H-265-JL92-mkv-20240324-192333-071.png"></a> <a href="https://ibb.co/6nHgNFj" target="_blank" class="externalLink" rel="nofollow"><img src="https://i.ibb.co/6nHgNFj/Lollapalooza-Brasil-2024-Dayglow-2160p-GLBO-WEB-DL-DDP5-1-Atmos-H-265-JL92-mkv-20240324-192336-479.png" class="bbCodeImage LbImage" alt="[​IMG]" data-url="https://i.ibb.co/6nHgNFj/Lollapalooza-Brasil-2024-Dayglow-2160p-GLBO-WEB-DL-DDP5-1-Atmos-H-265-JL92-mkv-20240324-192336-479.png"></a><br>
​</div>
<div class="ToggleTriggerAnchor bbCodeSpoilerContainer">
<button type="button" class="button bbCodeSpoilerButton ToggleTrigger Tooltip JsOnly" data-target="> .SpoilerTarget"><span>Spoiler: <span class="SpoilerTitle">MediaInfo</span></span></button>
<div class="SpoilerTarget bbCodeSpoilerText">
<div class="bbCodeBlock bbCodeCode">
<div class="type">Code:</div>
<pre>General
Format                                   : Matroska
Format version                           : Version 4
File size                                : 6.98 GiB
Duration                                 : 54 min 8 s
Overall bit rate                         : 18.5 Mb/s
Frame rate                               : 30.000 FPS
Writing application                      : Lavf58.76.100
Writing library                          : Lavf58.76.100
ErrorDetectionType                       : Per level 1

Video
ID                                       : 1
Format                                   : HEVC
Format/Info                              : High Efficiency Video Coding
Format profile                           : Main 10@L5.1@High
Codec ID                                 : V_MPEGH/ISO/HEVC
Duration                                 : 54 min 7 s
Bit rate                                 : 17.6 Mb/s
Width                                    : 3 840 pixels
Height                                   : 2 160 pixels
Display aspect ratio                     : 16:9
Frame rate mode                          : Constant
Frame rate                               : 30.000 FPS
Standard                                 : NTSC
Color space                              : YUV
Chroma subsampling                       : 4:2:0
Bit depth                                : 10 bits
Bits/(Pixel*Frame)                       : 0.071
Time code of first frame                 : 18:35:26:14
Stream size                              : 6.67 GiB (96%)
Default                                  : Yes
Forced                                   : No
Color range                              : Limited
Color primaries                          : BT.709
Transfer characteristics                 : BT.709
Matrix coefficients                      : BT.709

Audio
ID                                       : 2
Format                                   : E-AC-3 JOC
Format/Info                              : Enhanced AC-3 with Joint Object Coding
Commercial name                          : Dolby Digital Plus with Dolby Atmos
Codec ID                                 : A_EAC3
Duration                                 : 54 min 8 s
Bit rate mode                            : Constant
Bit rate                                 : 448 kb/s
Channel(s)                               : 6 channels
Channel layout                           : L R C LFE Ls Rs
Sampling rate                            : 48.0 kHz
Frame rate                               : 31.250 FPS (1536 SPF)
Compression mode                         : Lossy
Delay relative to video                  : 32 ms
Stream size                              : 173 MiB (2%)
Language                                 : English
Service kind                             : Complete Main
Default                                  : Yes
Forced                                   : No
Complexity index                         : 12
Number of dynamic objects                : 0
Bed channel count                        : 12 channels
Bed channel configuration                : L R C LFE Ls Rs Lb Rb Tfl Tfr Tbl Tbr
</pre>
</div></div>
</div>
<div class="bbCodeBlock bbCodeVfcHH HiddenContent">
<div class="attribution type">Hidden Content:</div>
<blockquote>You must reply before you can see the hidden data contained here.</blockquote>
</div>
<div class="messageTextEndMarker">&nbsp;</div>
</blockquote>
</article>]]></description>
                <author><![CDATA[itunesboy]]></author>
                </item>

                </channel></rss>